<svg height="77" viewBox="0 0 90 77" width="90" xmlns="http://www.w3.org/2000/svg"><g fill="none" fill-rule="evenodd" transform=""><g transform="translate(26)"><path d="m27.975805 34.4239192c1.0334271-1.0319064 2.7062531-1.0292113 3.7363613.0060198 1.0301083 1.0352311 1.0274178 2.7109772-.0060093 3.7428837l-4.5888896 4.5821372c-4.2336212 4.2275107-11.1372543 4.2888144-15.4422777.1424038-.0248818-.0238393-1.94181117-1.9034349-8.2655916-8.1043646-4.20705666-4.125135-4.62618076-10.7259344-.66722808-14.964776l7.38143308-7.9036364c3.9291915-4.20741973 11.1720964-4.66726841 15.6645732-1.0342221l6.7041065 5.4218253c1.1353316.918179 1.3126656 2.5844847.3960867 3.7217981-.9165789 1.1373135-2.579981 1.3149571-3.7153126.3967781l-6.7040613-5.4217888c-2.3494736-1.900009-6.4593748-1.6390733-8.486714.5318229l-7.38152793 7.903738c-1.92731642 2.0635733-1.71623277 5.3879367.50484905 7.5657686 4.64368158 4.5534699 8.22251198 8.0625994 8.22665258 8.0665792 2.2381521 2.1556839 5.8571109 2.1235478 8.0546337-.0708032z" fill="#ffa116" fill-rule="nonzero"/><path d="m16.8281226 29.8384229c-1.4591418 0-2.6420099-1.184933-2.6420099-2.6466218 0-1.4616889 1.1828681-2.6466219 2.6420099-2.6466219h19.4848225c1.4591418 0 2.6420099 1.184933 2.6420099 2.6466219 0 1.4616888-1.1828681 2.6466218-2.6420099 2.6466218z" fill="#b3b3b3"/><path d="m20.4772239.83850541c.99686-1.06739497 2.6687614-1.12316416 3.7342964-.12456398 1.0655349.99860019 1.1212069 2.67342017.1243469 3.74081515l-17.73498005 18.98985612c-1.92738418 2.0634167-1.71630181 5.38776.50463376 7.5656795l8.19027629 8.0313209c1.0427196 1.0224827 1.0605693 2.6981356.0398683 3.7426754-1.0207009 1.0445398-2.6934338 1.0624206-3.7361534.0399379l-8.19031415-8.0313581c-4.20681066-4.1253311-4.62593329-10.7261075-.66680421-14.9646673z" fill="#000"/></g><path d="m1.95171617 61.9600334v11.3516032c0 .4360613.15472911.8088178.46419196 1.1182806.30946285.3094629.68221933.464192 1.11828062.464192h3.06999679c.26726337 0 .49584046.0949474.68573812.2848451.18989766.1898976.28484506.4184747.28484506.6857381v.0210996c0 .2672634-.0949474.4923239-.28484506.6751883-.18989766.1898977-.41847475.2848451-.68573812.2848451h-3.06999679c-.97762128 0-1.8110485-.3446239-2.50030667-1.0338821s-1.03388208-1.5226854-1.03388208-2.5003067v-11.3516032c0-.2672634.09494741-.4958405.28484506-.6857382.18989766-.1828644.41495818-.2742952.6751883-.2742952h.03164945c.26023013 0 .48529064.0914308.6751883.2742952.18989766.1898977.28484506.4184748.28484506.6857382zm12.22723813 5.3382074c-1.054987 0-1.9552291.3727565-2.7007532 1.1182807-.7384909.7455241-1.1077308 1.6457662-1.1077308 2.7007532 0 .1898976.0140663.3762759.0421992.5591403l6.6780343-3.0172477c-.7595906-.9072889-1.7301641-1.3609265-2.9117495-1.3609265zm5.2327093 1.3925759c.1125319.2391304.1230816.4852903.0316494.7384872-.0914322.2461636-.2602276.4255087-.5063912.5380407-.9846545.4430945-2.2787525 1.0268452-3.8823327 1.7512696-1.9904088.9002556-3.2809902 1.4840063-3.8717829 1.7512697.7595906.970588 1.7582967 1.4558748 2.9961481 1.4558748.8228898 0 1.5684028-.2426434 2.2365612-.7279374.6470587-.4712276 1.1006963-1.0831108 1.3609264-1.8356682.1547314-.4360613.4641896-.6540887.9283839-.6540887.3305626 0 .5943054.1371463.7912363.4114429.1898977.2672634.2285799.5591387.116048.8756348-.3938618 1.139386-1.0831096 2.0607274-2.0677642 2.7640521-1.0057542.7244244-2.1275402 1.0866312-3.3653916 1.0866312-1.5895138 0-2.94691-.5626513-4.0722295-1.6879708-1.12531942-1.1253194-1.68797071-2.4827157-1.68797071-4.0722294s.56265129-2.94691 1.68797071-4.0722294c1.1253195-1.1253195 2.4827157-1.6879708 4.0722295-1.6879708 1.1464192 0 2.1943572.3129748 3.1438455.9389338.9354218.6118924 1.6317027 1.4207036 2.0888638 2.4264579zm7.6064181-1.3925759c-1.0549869 0-1.955229.3727565-2.7007531 1.1182807-.7384909.7455241-1.1077308 1.6457662-1.1077308 2.7007532 0 .1898976.0140662.3762759.0421992.5591403l6.6780343-3.0172477c-.7595906-.9072889-1.7301641-1.3609265-2.9117496-1.3609265zm5.2327094 1.3925759c.1125319.2391304.1230816.4852903.0316494.7384872-.0914322.2461636-.2602276.4255087-.5063912.5380407-.9846545.4430945-2.2787525 1.0268452-3.8823327 1.7512696-1.9904088.9002556-3.2809902 1.4840063-3.8717829 1.7512697.7595906.970588 1.7582966 1.4558748 2.996148 1.4558748.8228899 0 1.5684029-.2426434 2.2365613-.7279374.6470587-.4712276 1.1006963-1.0831108 1.3609264-1.8356682.1547314-.4360613.4641896-.6540887.9283839-.6540887.3305626 0 .5943054.1371463.7912363.4114429.1898977.2672634.2285799.5591387.116048.8756348-.3938618 1.139386-1.0831097 2.0607274-2.0677642 2.7640521-1.0057542.7244244-2.1275402 1.0866312-3.3653917 1.0866312-1.5895137 0-2.9469099-.5626513-4.0722294-1.6879708-1.1253194-1.1253194-1.6879707-2.4827157-1.6879707-4.0722294s.5626513-2.94691 1.6879707-4.0722294c1.1253195-1.1253195 2.4827157-1.6879708 4.0722294-1.6879708 1.1464192 0 2.1943573.3129748 3.1438456.9389338.9354218.6118924 1.6317027 1.4207036 2.0888638 2.4264579zm3.1543953-7.6908167c.2602301 0 .4852906.0914308.6751883.2742952.1898976.1898977.2848451.4184748.2848451.6857382v3.3653916h1.898967c.2602302 0 .4852907.0949474.6751883.2848451.1898977.1898977.2848451.4184747.2848451.6857381v.0210996c0 .2672634-.0949474.4923239-.2848451.6751883-.1898976.1898977-.4149581.2848451-.6751883.2848451h-1.898967v6.5725361c0 .2883631.1019805.5345231.3059446.7384872.2039642.2039642.4536407.3059447.7490371.3059447h.8439853c.2602302 0 .4852907.0949474.6751883.2848451.1898977.1898976.2848451.4184747.2848451.6857381v.0210996c0 .2672634-.0949474.4923239-.2848451.6751883-.1898976.1898977-.4149581.2848451-.6751883.2848451h-.8439853c-.8299231 0-1.5402704-.2918754-2.1310631-.8756348-.5837595-.5907928-.8756348-1.2976234-.8756348-2.1205133v-11.8896439c0-.2672634.0949474-.4958405.284845-.6857382.1898977-.1828644.4149582-.2742952.6751883-.2742952zm12.9551755 0c.6681584 0 1.3257571.0808811 1.9728158.2426458.485294.1265984.7279374.4360566.7279374.9283839v.0316495c0 .3094628-.1265966.5626559-.3797935.7595868-.2461636.1898977-.5204561.2461628-.8228857.1687971-.4923273-.1265985-.9916803-.1898967-1.498074-.1898967-1.6457797 0-3.052408.5837507-4.2199269 1.7512696s-1.7512697 2.5776637-1.7512697 4.2304767c0 1.6528129.5837508 3.0629577 1.7512697 4.2304767 1.1675189 1.1604857 2.5741472 1.7407198 4.2199269 1.7407198.5063937 0 1.0057467-.0597817 1.498074-.1793469.3024296-.0773657.5767221-.0211006.8228857.1687971.2531969.1898976.3797935.4430907.3797935.7595868v.0210997c0 .4993605-.2426434.8123352-.7279374.9389337-.6470587.1617647-1.3046574.2426458-1.9728158.2426458-2.1873397 0-4.0546387-.7736455-5.6019529-2.3209598-1.5473143-1.5473143-2.3209598-3.4146132-2.3209598-5.6019529s.7736455-4.0546387 2.3209598-5.6019529c1.5473142-1.5473143 3.4146132-2.3209598 5.6019529-2.3209598zm9.8324296 6.2982408c-1.054987 0-1.9552291.3727565-2.7007532 1.1182807-.7384909.7455241-1.1077308 1.6457662-1.1077308 2.7007532 0 1.0479537.3692399 1.9446792 1.1077308 2.6902033.7455241.7455242 1.6457662 1.1182807 2.7007532 1.1182807 1.0549869 0 1.9517124-.3727565 2.6902033-1.1182807.7455242-.7455241 1.1182807-1.6422496 1.1182807-2.6902033 0-1.054987-.3727565-1.9552291-1.1182807-2.7007532-.7384909-.7455242-1.6352164-1.1182807-2.6902033-1.1182807zm0-1.9728158c1.5895137 0 2.9469099.5626513 4.0722294 1.6879708 1.1253194 1.1253194 1.6879707 2.4827157 1.6879707 4.0722294s-.5626513 2.94691-1.6879707 4.0722294c-1.1253195 1.1253195-2.4827157 1.6879708-4.0722294 1.6879708-1.5895138 0-2.94691-.5626513-4.0722295-1.6879708-1.1253194-1.1253194-1.6879707-2.4827157-1.6879707-4.0722294s.5626513-2.94691 1.6879707-4.0722294c1.1253195-1.1253195 2.4827157-1.6879708 4.0722295-1.6879708zm12.9973747 1.9728158c-1.054987 0-1.9552291.3727565-2.7007532 1.1182807-.7384909.7455241-1.1077308 1.6457662-1.1077308 2.7007532 0 1.0479537.3692399 1.9446792 1.1077308 2.6902033.7455241.7455242 1.6457662 1.1182807 2.7007532 1.1182807s1.9517125-.3727565 2.6902034-1.1182807c.7455241-.7455241 1.1182806-1.6422496 1.1182806-2.6902033 0-1.054987-.3727565-1.9552291-1.1182806-2.7007532-.7384909-.7455242-1.6352164-1.1182807-2.6902034-1.1182807zm4.8001668-6.2982408c.2602301 0 .4852906.0914308.6751883.2742952.1898977.1898977.2848451.4184748.2848451.6857382v9.1572413c-.0070333 1.5824804-.5732011 2.9328435-1.6985206 4.0511297-1.1253195 1.1182863-2.4791991 1.677421-4.0616796 1.677421-1.5895137 0-2.94691-.5626513-4.0722294-1.6879708-1.1253195-1.1253194-1.6879708-2.4827157-1.6879708-4.0722294s.5626513-2.94691 1.6879708-4.0722294c1.1253194-1.1253195 2.4827157-1.6879708 4.0722294-1.6879708 1.4488488 0 2.7183308.4817702 3.808484 1.445325v-4.8107166c0-.2672634.0949474-.4958405.2848451-.6857382.1898976-.1828644.4149581-.2742952.6751883-.2742952zm8.5137025 6.2982408c-1.054987 0-1.9552291.3727565-2.7007532 1.1182807-.7384909.7455241-1.1077308 1.6457662-1.1077308 2.7007532 0 .1898976.0140662.3762759.0421992.5591403l6.6780343-3.0172477c-.7595906-.9072889-1.7301641-1.3609265-2.9117495-1.3609265zm5.2327093 1.3925759c.1125319.2391304.1230816.4852903.0316494.7384872-.0914322.2461636-.2602276.4255087-.5063912.5380407-.9846545.4430945-2.2787525 1.0268452-3.8823327 1.7512696-1.9904088.9002556-3.2809902 1.4840063-3.8717829 1.7512697.7595906.970588 1.7582967 1.4558748 2.9961481 1.4558748.8228898 0 1.5684028-.2426434 2.2365612-.7279374.6470587-.4712276 1.1006963-1.0831108 1.3609264-1.8356682.1547314-.4360613.4641896-.6540887.9283839-.6540887.3305626 0 .5943054.1371463.7912363.4114429.1898977.2672634.2285799.5591387.116048.8756348-.3938618 1.139386-1.0831096 2.0607274-2.0677642 2.7640521-1.0057542.7244244-2.1275402 1.0866312-3.3653916 1.0866312-1.5895138 0-2.94691-.5626513-4.0722295-1.6879708-1.1253194-1.1253194-1.6879707-2.4827157-1.6879707-4.0722294s.5626513-2.94691 1.6879707-4.0722294c1.1253195-1.1253195 2.4827157-1.6879708 4.0722295-1.6879708 1.1464192 0 2.1943572.3129748 3.1438455.9389338.9354218.6118924 1.6317027 1.4207036 2.0888638 2.4264579z" fill="#000"/></g></svg>
