<svg xmlns="http://www.w3.org/2000/svg" xmlns:xlink="http://www.w3.org/1999/xlink" width="500" zoomAndPan="magnify" viewBox="0 0 375 374.999991" height="500" preserveAspectRatio="xMidYMid meet" version="1.0"><defs><clipPath id="54e97042ec"><path d="M 29.003906 54.460938 L 209 54.460938 L 209 233 L 29.003906 233 Z M 29.003906 54.460938 " clip-rule="nonzero"/></clipPath><clipPath id="90bd76205b"><path d="M 67 227 L 163 227 L 163 309.460938 L 67 309.460938 Z M 67 227 " clip-rule="nonzero"/></clipPath><clipPath id="9c64ce322c"><path d="M 171 71 L 351.503906 71 L 351.503906 268 L 171 268 Z M 171 71 " clip-rule="nonzero"/></clipPath></defs><g clip-path="url(#54e97042ec)"><path fill="#cb6ce6" d="M 202.714844 175.203125 C 189.632812 192.148438 165.605469 199.722656 160.738281 223.207031 C 160.03125 223.414062 159.324219 223.601562 158.617188 223.792969 C 151.300781 226.261719 143.53125 226.519531 136.230469 224.707031 C 132.382812 223.757812 128.671875 222.222656 125.203125 220.132812 C 123.632812 216.097656 120.476562 212.941406 115.746094 210.679688 C 72.046875 247.257812 28.535156 235.230469 29.019531 194.941406 C 29.242188 175.203125 43.777344 166.371094 60.035156 156.878906 C 69.148438 151.566406 62.8125 141.660156 55.753906 145.664062 C 47.433594 150.375 39.425781 155.863281 32.300781 162.28125 C 32.109375 161.296875 31.9375 160.296875 31.78125 159.277344 C 31.261719 156.015625 30.902344 152.671875 30.710938 149.203125 C 30.675781 138.695312 33.992188 128.339844 40.324219 119.730469 C 48.144531 109.101562 59.84375 102.046875 72.824219 100.097656 C 76.773438 91.210938 88.304688 82.6875 107.410156 74.507812 C 118.628906 68.96875 131.691406 68.46875 143.273438 73.144531 C 179.515625 117.902344 144.535156 127.960938 109.117188 143.457031 C 92.6875 150.632812 77.1875 160.746094 71.597656 183.78125 C 68.90625 194.890625 80.882812 196.152344 83.003906 186.988281 C 86.890625 170.269531 97.054688 161.660156 113.863281 154.308594 C 131.882812 146.441406 159.410156 137.3125 167.78125 117.988281 C 175.859375 99.335938 163.96875 79.855469 152.507812 65.691406 L 151.351562 64.277344 C 160.636719 56.132812 173.320312 52.886719 185.4375 55.683594 C 194.238281 57.703125 201.917969 62.707031 207.304688 69.640625 C 193.394531 81.304688 180.742188 95.609375 184.417969 115.246094 C 186.402344 125.855469 192.632812 134.449219 198.710938 143.078125 C 201.988281 147.734375 206.355469 153.828125 207.632812 159.433594 C 209.011719 165.457031 206.355469 170.546875 202.730469 175.222656 Z M 202.714844 175.203125 " fill-opacity="1" fill-rule="evenodd"/></g><g clip-path="url(#90bd76205b)"><path fill="#cb6ce6" d="M 112.449219 227.433594 C 127.535156 235.730469 145.15625 238.164062 161.914062 234.25 C 163.242188 240.546875 157.375 243.703125 150.054688 247.757812 C 124.617188 261.839844 139.925781 258.40625 125.410156 281.730469 C 112.8125 301.503906 75.914062 310.390625 68.785156 309.113281 C 62.898438 308.046875 85.679688 300.953125 85.421875 279.09375 C 85.214844 259.386719 84.4375 255.125 73.480469 244.964844 C 88.375 244.929688 102.542969 238.5625 112.449219 227.433594 Z M 112.449219 227.433594 " fill-opacity="1" fill-rule="evenodd"/></g><g clip-path="url(#9c64ce322c)"><path fill="#a6a6a6" d="M 182.726562 248.429688 C 165.832031 234.25 168.800781 218.511719 191.617188 201.257812 C 265.378906 147.789062 166.9375 131.566406 204.542969 88.519531 C 209.824219 82.480469 216.019531 77.148438 223.597656 74.285156 C 233.191406 70.660156 244.015625 70.902344 253.628906 75.335938 C 266.96875 81.480469 275.71875 94.609375 276.21875 109.292969 C 287.746094 104.824219 300.847656 107.515625 309.703125 116.160156 C 318.539062 124.804688 321.523438 137.832031 317.3125 149.460938 C 329.359375 150.738281 340.09375 157.65625 346.238281 168.09375 C 351.984375 177.863281 353.089844 189.644531 349.308594 200.257812 L 349.257812 200.242188 C 348.863281 201.277344 348.394531 202.3125 347.894531 203.3125 C 342.390625 198.601562 335.125 195.324219 326.632812 193.441406 L 324.957031 193.0625 L 324.578125 191.699219 L 324.5625 191.664062 L 324.542969 191.628906 C 316.085938 162.660156 298.050781 149.546875 274.0625 150.773438 C 269.660156 151.152344 263.808594 152.203125 256.507812 153.894531 C 254.644531 154.429688 252.765625 155.050781 250.867188 155.722656 C 249 156.398438 247.121094 157.121094 245.203125 157.914062 C 236.28125 161.625 240.925781 172.5625 249.761719 168.855469 C 253.523438 167.285156 257.113281 166.007812 260.546875 165.007812 C 262.824219 164.351562 265.050781 163.816406 267.191406 163.402344 C 292.355469 158.65625 308.21875 171.320312 314.808594 201.378906 C 327.910156 205.675781 342.199219 206.796875 346.996094 220.945312 C 348.601562 225.671875 348.757812 230.902344 347.238281 235.921875 C 344.253906 245.824219 335.382812 252.796875 325.042969 253.347656 C 322.058594 260.335938 315.792969 265.390625 308.320312 266.808594 C 303.144531 267.808594 297.84375 266.960938 293.304688 264.546875 C 289.855469 261.542969 286.089844 259.355469 282.019531 257.972656 C 275.632812 263.683594 266.984375 266.308594 258.40625 264.960938 C 250.46875 263.71875 243.480469 259.25 239.0625 252.726562 C 248.140625 238.269531 252.160156 227.589844 255.578125 210.972656 C 257.320312 202.5 245.894531 198.964844 243.980469 208.558594 C 241.0625 223.257812 236.574219 240.703125 223.597656 249.261719 C 214.035156 255.574219 201.765625 257.09375 190.648438 252.710938 C 187.785156 251.589844 185.144531 250.140625 182.726562 248.398438 Z M 182.726562 248.429688 " fill-opacity="1" fill-rule="evenodd"/></g></svg>